<svg xmlns="http://www.w3.org/2000/svg" width="25" height="17.188" viewBox="0 0 25 17.188">
  <g id="email" transform="translate(0 -80)">
    <g id="Group_16" data-name="Group 16" transform="translate(16.885 83.372)">
      <g id="Group_15" data-name="Group 15">
        <path id="Path_122" data-name="Path 122" d="M339.392,150.243l8.115,5.13V144.9Z" transform="translate(-339.392 -144.896)" fill="#a64686"/>
      </g>
    </g>
    <g id="Group_18" data-name="Group 18" transform="translate(0 83.372)">
      <g id="Group_17" data-name="Group 17">
        <path id="Path_123" data-name="Path 123" d="M0,144.9v10.478l8.115-5.13Z" transform="translate(0 -144.896)" fill="#a64686"/>
      </g>
    </g>
    <g id="Group_20" data-name="Group 20" transform="translate(0.045 80)">
      <g id="Group_19" data-name="Group 19">
        <path id="Path_124" data-name="Path 124" d="M24.354,80H2.476A1.525,1.525,0,0,0,.96,81.28l12.455,7.9,12.455-7.9A1.525,1.525,0,0,0,24.354,80Z" transform="translate(-0.96 -80)" fill="#a64686"/>
      </g>
    </g>
    <g id="Group_22" data-name="Group 22" transform="translate(0.048 89.943)">
      <g id="Group_21" data-name="Group 21">
        <path id="Path_125" data-name="Path 125" d="M16.117,277.922l-2.211,1.4a.81.81,0,0,1-.86,0l-2.211-1.4-9.811,5.974a1.523,1.523,0,0,0,1.513,1.27H24.415a1.523,1.523,0,0,0,1.513-1.27Z" transform="translate(-1.024 -277.92)" fill="#a64686"/>
      </g>
    </g>
  </g>
</svg>
