<svg xmlns="http://www.w3.org/2000/svg" width="25" height="24.998" viewBox="0 0 25 24.998">
  <g id="telephone" transform="translate(-1 -0.016)">
    <g id="Group_441" data-name="Group 441" transform="translate(1 0.016)">
      <g id="Group_440" data-name="Group 440" transform="translate(0 0)">
        <path id="Path_1587" data-name="Path 1587" d="M1.567,7.285A.455.455,0,0,0,2.1,7.6L4.8,7.08l2.082-.457a.429.429,0,0,0,.37-.46L6.993,4.216c-.116-.893.817-1.44,1.794-1.588a29.768,29.768,0,0,1,9.359-.021,2.527,2.527,0,0,1,1.628.691,1.723,1.723,0,0,1,.187,1.282l-.183,1.295a.863.863,0,0,0,.029.561c.114.15.472.219.686.26.331.063.586.127.841.19s.481.12.795.179l2.418.463a1.236,1.236,0,0,0,.693.012c.153-.08.212-.3.287-.636l.016-.068c.051-.226.119-.451.187-.675a4.045,4.045,0,0,0,.245-1.245,2.705,2.705,0,0,0-.912-1.772C22.205.341,17.1.016,13.5.016,5.36.016,2.327,2.243,1.216,4.111a1.582,1.582,0,0,0-.16,1.217Z" transform="translate(-1 -0.016)" fill="#a64686"/>
        <path id="Path_1588" data-name="Path 1588" d="M22.013,167.944a.446.446,0,1,1,0-.893h3.581l-5.324-7.226a.9.9,0,0,0-.719-.363H18a.446.446,0,0,1-.443-.391l-.446-3.571a.382.382,0,0,1,0-.055H15.763v3.571a.446.446,0,0,1-.446.446H11.746a.446.446,0,0,1-.446-.446v-3.571H9.96a.382.382,0,0,1,0,.055l-.446,3.571a.446.446,0,0,1-.443.391H7.512a.9.9,0,0,0-.719.363l-5.324,7.226H19.781a.446.446,0,1,1,0,.893H1.032v3.571a1.339,1.339,0,0,0,1.339,1.339h22.32a1.339,1.339,0,0,0,1.339-1.339v-3.571ZM18,164.485a3.473,3.473,0,0,1-1.1.9,6.026,6.026,0,0,1-1.533.57,8.37,8.37,0,0,1-3.677,0,6.026,6.026,0,0,1-1.533-.57,3.473,3.473,0,0,1-1.1-.9,1.92,1.92,0,0,1,0-2.455,3.473,3.473,0,0,1,1.1-.9,6.027,6.027,0,0,1,1.533-.57,8.419,8.419,0,0,1,3.677,0,.446.446,0,1,1-.2.87,7.51,7.51,0,0,0-3.273,0,5.13,5.13,0,0,0-1.305.483,2.63,2.63,0,0,0-.818.662,1.034,1.034,0,0,0,0,1.367,2.628,2.628,0,0,0,.818.662,5.118,5.118,0,0,0,1.3.483,7.51,7.51,0,0,0,3.273,0,5.13,5.13,0,0,0,1.305-.483,2.63,2.63,0,0,0,.818-.662,1.034,1.034,0,0,0,0-1.367.446.446,0,1,1,.708-.544A1.92,1.92,0,0,1,18,164.485Z" transform="translate(-1.03 -147.856)" fill="#a64686"/>
      </g>
    </g>
  </g>
</svg>
